<svg xmlns="http://www.w3.org/2000/svg" width="56.575" height="52.83" viewBox="0 0 56.575 52.83">
  <g id="companies" transform="translate(-6155.834 -10967.17)">
    <path id="Path_478" data-name="Path 478" d="M0,0H6.639S5.092,12.579,11.3,18.056c2.336,2.067,7.071,3.767,13.79,3.767a23.326,23.326,0,0,0,13.376-3.767C45.464,13.066,44.019,0,44.019,0H50V18.03c0,5.884-5.82,10.654-13,10.654H13c-7.18,0-13-4.77-13-10.654Z" transform="translate(6159 10991.315)" fill="#fff"/>
    <path id="Path_479" data-name="Path 479" d="M6173.573,10970.17l-1.179,9.261s-1.215,7.956-5.551,10.607-9.374,2.561-11.792,0-1.261-10.511,3.7-14.985S6173.573,10970.17,6173.573,10970.17Z" transform="translate(2 -3)" fill="#fff"/>
    <path id="Path_482" data-name="Path 482" d="M6153.834,10970.17l1.179,9.261s1.215,7.956,5.551,10.607,9.374,2.561,11.792,0,1.261-10.511-3.7-14.985S6153.834,10970.17,6153.834,10970.17Z" transform="translate(38.835 -3)" fill="#fff"/>
    <path id="Path_481" data-name="Path 481" d="M6177.451,10967.17H6190.9s2.9,12.092,1.179,18.185-8.08,6.187-8.08,6.187a8.241,8.241,0,0,1-7.58-6.187C6174.779,10979.262,6177.451,10967.17,6177.451,10967.17Z" fill="#fff"/>
  </g>
</svg>
