<svg xmlns="http://www.w3.org/2000/svg" xmlns:xlink="http://www.w3.org/1999/xlink" width="55" height="75" viewBox="0 0 55 75">
  <defs>
    <clipPath id="clip-path">
      <rect id="Rectangle_436" data-name="Rectangle 436" width="22" height="22" transform="translate(3.693 1.694)" fill="#fff" stroke="#707070" stroke-width="1"/>
    </clipPath>
  </defs>
  <g id="Demo" transform="translate(11.307 13.306)">
    <text id="Demos" transform="translate(-1.307 57.694)" fill="#252525" font-size="10" font-family="Poppins-Medium, Poppins" font-weight="500" letter-spacing="0.018em"><tspan x="0" y="0">Demos</tspan></text>
    <circle id="Ellipse_66" data-name="Ellipse 66" cx="27.5" cy="27.5" r="27.5" transform="translate(-11.307 -13.306)" fill="#03b403" opacity="0.2"/>
    <g id="Mask_Group_9" data-name="Mask Group 9" transform="translate(2 2)" clip-path="url(#clip-path)">
      <g id="offers" transform="translate(3.693 1.694)">
        <g id="Group_376" data-name="Group 376" transform="translate(0 0)">
          <g id="Group_375" data-name="Group 375">
            <path id="Path_486" data-name="Path 486" d="M14.579,20.344H5.764C2.316,20.344,0,17.925,0,14.325V6.018C0,2.418,2.316,0,5.764,0H14.58c3.447,0,5.764,2.418,5.764,6.018v8.307C20.344,17.925,18.027,20.344,14.579,20.344ZM6.415,13.468c-.511,0-1.036.389-1.754,1.3l-.039.049c-.457.579-.928,1.174-1.395,1.755a.81.81,0,0,0-.165.644.728.728,0,0,0,.334.506,4.182,4.182,0,0,0,2.227.586H14.2a4.6,4.6,0,0,0,1.431-.218,3.781,3.781,0,0,0,2.3-2.148,3.82,3.82,0,0,0,.2-2.785,2.3,2.3,0,0,0-.522-.8l0,0a11,11,0,0,0-1.9-1.623,1.454,1.454,0,0,0-.772-.239,1.906,1.906,0,0,0-1.386.82c-.18.243-.336.5-.5.772l-.105.173-.007.012a5.781,5.781,0,0,1-2,2.253,2.53,2.53,0,0,1-1.228.34,3.576,3.576,0,0,1-1.993-.8,5.585,5.585,0,0,0-.842-.5A1.139,1.139,0,0,0,6.415,13.468Zm.2-9.4A2.543,2.543,0,1,0,9.152,6.611,2.543,2.543,0,0,0,6.611,4.068Z" fill="#03b403"/>
          </g>
        </g>
        <g id="Group_378" data-name="Group 378" transform="translate(8.134 8.134)">
          <g id="Group_377" data-name="Group 377" transform="translate(0)">
            <path id="Path_487" data-name="Path 487" d="M6.933,13.866a6.933,6.933,0,1,1,6.933-6.929A6.933,6.933,0,0,1,6.933,13.866ZM6.143,4.18a.928.928,0,0,0-.422.1.868.868,0,0,0-.375.414,4.378,4.378,0,0,0-.12.488,10.671,10.671,0,0,0-.113,1.746,12.283,12.283,0,0,0,.1,1.692q.01.036.017.073a2.711,2.711,0,0,0,.144.533.839.839,0,0,0,.739.458H6.14A2.21,2.21,0,0,0,6.762,9.5,10.21,10.21,0,0,0,9.436,7.676l.041-.04a2.732,2.732,0,0,0,.187-.214.8.8,0,0,0,.16-.487.844.844,0,0,0-.174-.523l-.044-.048c-.045-.049-.112-.122-.177-.187A10.245,10.245,0,0,0,6.7,4.334a2.327,2.327,0,0,0-.556-.154Z" transform="translate(0)" fill="#006c00"/>
          </g>
        </g>
      </g>
    </g>
  </g>
</svg>
