<svg xmlns="http://www.w3.org/2000/svg" width="327.878" height="121.785" viewBox="0 0 327.878 121.785">
  <g id="Layer_2" data-name="Layer 2" transform="translate(-412.062 -444.115)">
    <g id="Layer_1" data-name="Layer 1">
      <path id="Path_470" data-name="Path 470" d="M174.21,188.89V160.06h-4.35v-6.68h4.66c4.1-19.11,45.88-18.93,49,0H363.94v6.66h-4.27v28.67h-9.51V170.58h-7.95a10,10,0,0,1,1.53,5.28c0,6.64-6.74,12-15.06,12s-15-5.37-15-12,6.74-12,15-12A20.351,20.351,0,0,1,331,164h19.12v-4H309.37v28.67h-9.63v-28.6h-5.47v28.51h-9.51V175.84H268.35a19,19,0,0,1-2.54,1.18c5.66,1.68,9.8,9.13,12.16,11.71H265.64c-4.14-9.28-11-8.87-15-9.15,0-2.28-.14-3.26,0-6.52,3.83.26,5.31.37,7.86-.34,9.56-2.64,4.26-11.09,1.87-12.64H221.92v4c7.65-2.93,15.55-2.49,21.41,3,5,4.35,4.56,13-1.18,16.9-3.14,2.85-11.62,4.19-17.86,1.61v-7.72a10.92,10.92,0,0,0,4.6.94c4,0,7.21-1.83,7.21-4.09s-3.23-4.08-7.21-4.08c-3.36,0-6.19,1.31-7,3.07v15h-9.51V184c-6.26,4-16.49,2.71-20-.49-5.74-3.93-6.2-12.55-1.17-16.89,5.8-5.45,13.6-5.94,21.19-3.1v-3.49H183.74v28.82Zm154.44-18c3.46,0,6.26,2.22,6.26,5s-2.8,5-6.26,5-6.25-2.23-6.25-5S325.2,170.89,328.65,170.89Zm-54.13-1.62h10.19v-9.21H272.57c2.46,3.69,2.75,6.74,1.95,9.19Zm-62.14,6.46v-2.85c-1-1.55-3.66-2.66-6.76-2.66-4,0-7.2,1.83-7.2,4.08s3.22,4.1,7.2,4.1C208.72,178.4,211.36,177.28,212.38,175.73Zm-26.92-22.34h27.32C210.78,143.05,187.98,142.96,185.46,153.39Z" transform="translate(376 305)" fill="#008940" fill-rule="evenodd"/>
      <path id="Path_471" data-name="Path 471" d="M299,251H288.17l-2,5.61H270.88l14.94-40.85h15.73l14.62,40.87H300.9Zm-2-8.84-3.38-12.61-3.4,12.61Z" transform="translate(376 305)" fill="#008940"/>
      <path id="Path_472" data-name="Path 472" d="M174.03,215.72h14.15v17.06l10.04-17.06h16.47l-12.94,20,13.7,20.85H199.52l-11.34-17.05v17.05H174.04l-.01-40.85Z" transform="translate(376 305)" fill="#008940"/>
      <path id="Path_473" data-name="Path 473" d="M218.53,215.66h14.5v40.85h-14.5V215.66Z" transform="translate(376 305)" fill="#008940"/>
      <path id="Path_474" data-name="Path 474" d="M237.37,252.75l4.94-10.65c1.72,1.21,6.48,4.28,11.29,4,2.78-.14,3.07-2.69,1.24-3.57-3.38-1.63-6.68-1.1-11.24-4.59a11.41,11.41,0,0,1-3.88-9.7c1.24-9.18,7.35-13.45,16.52-13.19,7.27-.23,13,2.37,14.47,3.42l-4.91,10.3c-9.19-5.2-13.12-1.88-10.74.56,1.45,1.7,8.33,1.46,12.39,5.28,8.34,6.79,1.54,22.48-11,23-6.53.25-13.73-.87-19.07-4.86Z" transform="translate(376 305)" fill="#008940"/>
      <path id="Path_475" data-name="Path 475" d="M319.05,215.72h14.03l12.3,20.61-.01-20.61h14.17v40.84l-14.01.01-12.41-20.28-.03,20.28-14.04-.01V215.72Z" transform="translate(376 305)" fill="#008940"/>
      <path id="Path_476" data-name="Path 476" d="M169.86,200.45H363.94v3.71H169.86v-3.71Z" transform="translate(376 305)" fill="#008940" fill-rule="evenodd"/>
      <path id="Path_477" data-name="Path 477" d="M93.55,151h1.58L63.82,217.92C58.28,229.77,66.3,238.11,77,236.79c2.55-.71,6.25-1.78,8.86-2.3l-7.75,18.12c-6-12.52-12.73-7.48-23.73-9.91-7.5-1.66-5.52-10-3.21-15.52,6.54-15.72,22.83-51.52,33.72-75.54a58.169,58.169,0,0,1,8.71-.66Zm6,.31a56.839,56.839,0,0,1,6.29,1L82.19,200.22a9.07,9.07,0,0,0,7,12.82c3,.28,6.26-3,8.06-2.48L91.3,223.2c-2.41-3.46-5-3.82-8.63-3.53-3.37.28-12.54-5.41-6.38-18.61l23.22-49.77Zm10.75,2.16a57.146,57.146,0,0,1,8.63,3.41l-3.39,6.4-.24.44c-8.13,14.51-15.16,6.71-11.53,27.07.44,2.46-2.16,10.15-3,11-1-2.41-12.84-1.38-7.84-11.09l17.35-37.27Zm12.6,5.56a57.611,57.611,0,0,1,9.75,7.29l-1.87,4.07L120.69,195c-3.57,8.73-6.75,2.62-11.85,5.71-2.22,1.34-3.13,1.91-3.37,1.81,1.68-11.41,9.71-10.05,13.81-16.18,4.65-6.93-4.37-7.08.73-20.43l2.85-6.87Zm12.39,9.89a59.007,59.007,0,0,1,4.16,4.91L124,211.37c-2.34,5.72-9.79,11.8-15.34,10.44-4.6-1.12-8.22.05-12.85,1.75l5.92-12.51c1.69-.17,4.92,4.13,8.73,3.27a11.63,11.63,0,0,0,8.94-7.57l15.83-37.85Zm6.44,8.15a57.421,57.421,0,0,1,3.79,6.72L127.4,232.24c-7.22,18.41-15,18.31-27.65,14.87-6.34-.33-9.13,2-14.52,3.3l7.25-18.19c10.81,14.46,22.84,11.52,29.3-3.44l19.91-51.73Zm5.9,11.76a57.56,57.56,0,0,1-30.39,72.07A33.88,33.88,0,0,0,125,248.81l22.63-60ZM41.86,233.66a57.52,57.52,0,0,1,36.88-80.74Z" transform="translate(376 305)" fill="#008940" fill-rule="evenodd"/>
    </g>
  </g>
</svg>
