<svg xmlns="http://www.w3.org/2000/svg" width="44.218" height="40.816" viewBox="0 0 44.218 40.816"><defs><style>.a{fill:#fff;}</style></defs><path class="a" d="M4.45,37.951c5.506-.85,5.921-1.244,5.921-1.244-1.658-7.866,2.381-16.061,8.11-20.791C26.113,9.624,37.71,14.195,46.745,4.628c2.1-2.232.882,25.032-10.427,35.364a19.883,19.883,0,0,1-20.674,4,11.836,11.836,0,0,1-4.114-3.6,31.194,31.194,0,0,1-6.59,1.509C3.387,42.086,2.6,38.238,4.45,37.951Zm9.758.787c8.259-2.477,15.445-8.61,20.1-13.414a.433.433,0,0,0-.585-.638A64.64,64.64,0,0,1,13.177,36.155,3.963,3.963,0,0,0,14.208,38.738Z" transform="translate(-3.376 -4.499)"/></svg>