<svg xmlns="http://www.w3.org/2000/svg" xmlns:xlink="http://www.w3.org/1999/xlink" width="55" height="75" viewBox="0 0 55 75">
  <defs>
    <clipPath id="clip-path">
      <rect id="Rectangle_433" data-name="Rectangle 433" width="25" height="25" transform="translate(-7257 4054)" fill="#fff" stroke="#707070" stroke-width="1"/>
    </clipPath>
  </defs>
  <g id="Launch" transform="translate(7272 -4039)">
    <text id="Launch-2" data-name="Launch" transform="translate(-7263 4110)" fill="#252525" font-size="10" font-family="Poppins-Medium, Poppins" font-weight="500" letter-spacing="0.018em"><tspan x="0" y="0">Launch</tspan></text>
    <circle id="Ellipse_67" data-name="Ellipse 67" cx="27.5" cy="27.5" r="27.5" transform="translate(-7272 4039)" fill="#c9341c" opacity="0.2"/>
    <g id="Mask_Group_8" data-name="Mask Group 8" clip-path="url(#clip-path)">
      <g id="rocket" transform="translate(-7259.404 4053.059)">
        <path id="Path_484" data-name="Path 484" d="M14.964,24.7a6.232,6.232,0,0,1-2.483-.631.45.45,0,0,0-.631.44l.2,2.951a.227.227,0,0,0,.364.162l.839-.637a.229.229,0,0,1,.333.058L14.776,28.9a.228.228,0,0,0,.382,0l1.187-1.858a.229.229,0,0,1,.333-.058l.839.637a.227.227,0,0,0,.364-.162l.2-2.951a.448.448,0,0,0-.631-.44,6.259,6.259,0,0,1-2.49.631Z" transform="translate(-0.066 -3.063)" fill="#c9341c"/>
        <path id="Path_485" data-name="Path 485" d="M23.1,15.065l-2.778-2.5C20.32,4.51,14.926.941,14.926.941S9.48,4.51,9.48,12.565L6.7,15.065a.393.393,0,0,0-.128.362l1.065,5.7a.456.456,0,0,0,.683.275l3.884-2.315a4.688,4.688,0,0,0,2.726,1.019A4.418,4.418,0,0,0,17.6,19.087L21.482,21.4a.458.458,0,0,0,.683-.275l1.073-5.707A.422.422,0,0,0,23.1,15.065ZM14.93,9.911A1.706,1.706,0,0,1,13.153,8.28a1.783,1.783,0,0,1,3.553,0,1.706,1.706,0,0,1-1.779,1.63Z" fill="#c9341c"/>
      </g>
    </g>
  </g>
</svg>
