<svg xmlns="http://www.w3.org/2000/svg" width="49.23" height="48.422" viewBox="0 0 49.23 48.422">
  <g id="shortlisticon" transform="translate(-1422.008 -76.893)">
    <path id="Exclusion_1" data-name="Exclusion 1" d="M664.8-147.321h0c-.214-.179-5.295-4.432-10.7-9.5-5.033-4.718-11.321-11.075-12.7-14.563a22.077,22.077,0,0,1,.138-15.845,13.318,13.318,0,0,1,7.566-7.36,15.88,15.88,0,0,1,5.771-1.155,13.255,13.255,0,0,1,7.354,2.241,12.063,12.063,0,0,1,2.567,2.241l0-.006a12.3,12.3,0,0,1,2.532-2.2,13.018,13.018,0,0,1,7.206-2.2,15.207,15.207,0,0,1,5.475,1.08,13.826,13.826,0,0,1,4.791,3.063,13.981,13.981,0,0,1,2.969,4.382,18.836,18.836,0,0,1,1.446,7.886,22.784,22.784,0,0,1-1.6,7.875,28.275,28.275,0,0,1-4.931,7.17c-2.027,2.331-4.616,4.986-7.694,7.892-5.207,4.915-10.15,8.959-10.2,9Zm8.793-41.955a1.571,1.571,0,0,0-1.669.978,1.151,1.151,0,0,0,.1,1.044,4,4,0,0,0,2.675,1.314,5.963,5.963,0,0,1,3.29,2.035c1.161,1.6.77,4.56.766,4.59a2.862,2.862,0,0,0,.516,2.094,1.3,1.3,0,0,0,.983.37c.984,0,1.475-.606,1.589-1.965,0-.044.305-4.465-1.285-6.625a11.154,11.154,0,0,0-4.477-3.246A7.116,7.116,0,0,0,673.6-189.276Z" transform="translate(782.006 272.636)" fill="#fff"/>
  </g>
</svg>
