<svg xmlns="http://www.w3.org/2000/svg" width="212.5" height="147" viewBox="0 0 212.5 147">
  <g id="webinar" transform="translate(-1021 -1771)">
    <rect id="Rectangle_437" data-name="Rectangle 437" width="156" height="147" rx="33" transform="translate(1021 1771)" fill="#fff"/>
    <path id="Subtraction_1" data-name="Subtraction 1" d="M114.49,104.537a12.865,12.865,0,0,1-6.02-1.5L80,88.13V26.87l28.47-14.906a12.848,12.848,0,0,1,10.927-.529,13.153,13.153,0,0,1,4.153,2.7,12.842,12.842,0,0,1,3.95,9.341V91.519a12.842,12.842,0,0,1-3.951,9.341,13.155,13.155,0,0,1-4.153,2.7A12.886,12.886,0,0,1,114.49,104.537Z" transform="translate(1106 1787)" fill="#fff"/>
  </g>
</svg>
