<svg xmlns="http://www.w3.org/2000/svg" width="18.465" height="18.849" viewBox="0 0 18.465 18.849"><defs><style>.a{fill:#fff;}</style></defs><path class="a" d="M-24149.139-13743.42a17.925,17.925,0,0,1,4.621-6.458,28.636,28.636,0,0,1,8.092-4.321,50.285,50.285,0,0,0-6.869,6.445,24.641,24.641,0,0,0-3.891,6.507h12.615a4.953,4.953,0,0,0,2.793-1.166,4.939,4.939,0,0,0,1.082-3.131v-14.474s-14.158-.176-14.863,0a4.591,4.591,0,0,0-2.553,1.063,4.332,4.332,0,0,0-1.027,2.365c-.047.383,0,9.814,0,13.17" transform="translate(24149.16 13760.096)"/></svg>